<svg width="28" height="28" viewBox="0 0 28 28" fill="none" xmlns="http://www.w3.org/2000/svg">
  <defs>
    <linearGradient id="g1" x1="4" y1="3" x2="15" y2="16" gradientUnits="userSpaceOnUse">
      <stop stop-color="#4FB1FF"/>
      <stop offset="0.45" stop-color="#8F7BFF"/>
      <stop offset="1" stop-color="#F56CC8"/>
    </linearGradient>
    <linearGradient id="g2" x1="15" y1="12" x2="24" y2="22" gradientUnits="userSpaceOnUse">
      <stop stop-color="#5CA6FF"/>
      <stop offset="0.5" stop-color="#9B79FF"/>
      <stop offset="1" stop-color="#FF6EB5"/>
    </linearGradient>
    <linearGradient id="g3" x1="14" y1="15" x2="18" y2="20" gradientUnits="userSpaceOnUse">
      <stop stop-color="#6AB2FF"/>
      <stop offset="1" stop-color="#CC6FFF"/>
    </linearGradient>
  </defs>

  <path d="M10.1 2.8C10.4 2.8 10.7 3 10.9 3.3L12.6 7.5C13.1 8.7 14.1 9.7 15.3 10.2L19.5 11.9C19.8 12.1 20 12.4 20 12.7C20 13 19.8 13.3 19.5 13.5L15.3 15.2C14.1 15.7 13.1 16.7 12.6 17.9L10.9 22.1C10.7 22.4 10.4 22.6 10.1 22.6C9.8 22.6 9.5 22.4 9.3 22.1L7.6 17.9C7.1 16.7 6.1 15.7 4.9 15.2L0.7 13.5C0.4 13.3 0.2 13 0.2 12.7C0.2 12.4 0.4 12.1 0.7 11.9L4.9 10.2C6.1 9.7 7.1 8.7 7.6 7.5L9.3 3.3C9.5 3 9.8 2.8 10.1 2.8Z" fill="url(#g1)"/>
  <path d="M21.1 12.5C21.3 12.5 21.5 12.6 21.6 12.8L22.5 15.1C22.8 15.7 23.3 16.2 23.9 16.5L26.2 17.4C26.4 17.5 26.5 17.7 26.5 17.9C26.5 18.1 26.4 18.3 26.2 18.4L23.9 19.3C23.3 19.6 22.8 20.1 22.5 20.7L21.6 23C21.5 23.2 21.3 23.3 21.1 23.3C20.9 23.3 20.7 23.2 20.6 23L19.7 20.7C19.4 20.1 18.9 19.6 18.3 19.3L16 18.4C15.8 18.3 15.7 18.1 15.7 17.9C15.7 17.7 15.8 17.5 16 17.4L18.3 16.5C18.9 16.2 19.4 15.7 19.7 15.1L20.6 12.8C20.7 12.6 20.9 12.5 21.1 12.5Z" fill="url(#g2)"/>
  <path d="M15.8 15.3C15.9 15.3 16 15.4 16.1 15.5L16.5 16.4C16.6 16.7 16.9 16.9 17.2 17L18.1 17.4C18.2 17.5 18.3 17.6 18.3 17.7C18.3 17.8 18.2 17.9 18.1 18L17.2 18.4C16.9 18.5 16.6 18.8 16.5 19.1L16.1 20C16 20.1 15.9 20.2 15.8 20.2C15.7 20.2 15.6 20.1 15.5 20L15.1 19.1C15 18.8 14.8 18.5 14.5 18.4L13.6 18C13.5 17.9 13.4 17.8 13.4 17.7C13.4 17.6 13.5 17.5 13.6 17.4L14.5 17C14.8 16.9 15 16.7 15.1 16.4L15.5 15.5C15.6 15.4 15.7 15.3 15.8 15.3Z" fill="url(#g3)"/>
</svg>
